<?xml version="1.0" encoding="UTF-8" standalone="no"?>
<!-- Created with Inkscape (http://www.inkscape.org/) -->

<svg
   version="1.1"
   id="svg48"
   width="441.40219"
   height="406.81351"
   viewBox="0 0 441.40219 406.81351"
   sodipodi:docname="Gemini_Generated_Image_35x1i35x1i35x1i3.png"
   inkscape:export-filename="../Desktop/trove.svg"
   inkscape:export-xdpi="96"
   inkscape:export-ydpi="96"
   xmlns:inkscape="http://www.inkscape.org/namespaces/inkscape"
   xmlns:sodipodi="http://sodipodi.sourceforge.net/DTD/sodipodi-0.dtd"
   xmlns="http://www.w3.org/2000/svg"
   xmlns:svg="http://www.w3.org/2000/svg">
  <defs
     id="defs52" />
  <sodipodi:namedview
     id="namedview50"
     pagecolor="#ffffff"
     bordercolor="#000000"
     borderopacity="0.25"
     inkscape:showpageshadow="2"
     inkscape:pageopacity="0.0"
     inkscape:pagecheckerboard="0"
     inkscape:deskcolor="#d1d1d1"
     showgrid="false" />
  <g
     inkscape:groupmode="layer"
     inkscape:label="Image"
     id="g54"
     transform="translate(-286.21638,-289.45029)">
    <g
       id="g457"
       transform="translate(-5.161785,-14.542675)">
      <path
         style="fill:#e3ae53"
         d="m 588.26903,710.30701 c 0.97297,-0.25354 2.32297,-0.23687 3,0.0371 0.67703,0.27393 -0.11903,0.48137 -1.76903,0.46099 -1.65,-0.0204 -2.20394,-0.2445 -1.23097,-0.49804 z M 562.75,709.33772 c 0.6875,-0.27741 1.8125,-0.27741 2.5,0 0.6875,0.27741 0.125,0.50439 -1.25,0.50439 -1.375,0 -1.9375,-0.22698 -1.25,-0.50439 z m -23.9375,-1.02083 c 0.72187,-0.28887 1.58438,-0.25335 1.91667,0.0789 0.33229,0.33229 -0.25834,0.56864 -1.3125,0.52522 -1.16495,-0.048 -1.4019,-0.28494 -0.60417,-0.60416 z M 493.75,706.33772 c 0.6875,-0.27741 1.8125,-0.27741 2.5,0 0.6875,0.27741 0.125,0.50439 -1.25,0.50439 -1.375,0 -1.9375,-0.22698 -1.25,-0.50439 z m -44.9375,-2.02083 c 0.72187,-0.28887 1.58438,-0.25335 1.91667,0.0789 0.33229,0.33229 -0.25834,0.56864 -1.3125,0.52522 -1.16495,-0.048 -1.4019,-0.28494 -0.60417,-0.60416 z m -40,-2 c 0.72187,-0.28887 1.58438,-0.25335 1.91667,0.0789 0.33229,0.33229 -0.25834,0.56864 -1.3125,0.52522 -1.16495,-0.048 -1.4019,-0.28494 -0.60417,-0.60416 z m -24,-1 c 0.72187,-0.28887 1.58438,-0.25335 1.91667,0.0789 0.33229,0.33229 -0.25834,0.56864 -1.3125,0.52522 -1.16495,-0.048 -1.4019,-0.28494 -0.60417,-0.60416 z m -47,-2 c 0.72187,-0.28887 1.58438,-0.25335 1.91667,0.0789 0.33229,0.33229 -0.25834,0.56864 -1.3125,0.52522 -1.16495,-0.048 -1.4019,-0.28494 -0.60417,-0.60416 z m 242,-9 c 0.72187,-0.28887 1.58438,-0.25335 1.91667,0.0789 0.33229,0.33229 -0.25834,0.56864 -1.3125,0.52522 -1.16495,-0.048 -1.4019,-0.28494 -0.60417,-0.60416 z M 291.39172,602 c 0,-7.425 0.15742,-10.4625 0.34983,-6.75 0.19241,3.7125 0.19241,9.7875 0,13.5 -0.19241,3.7125 -0.34983,0.675 -0.34983,-6.75 z m 436.90794,-5 c 0,-3.025 0.18747,-4.2625 0.41659,-2.75 0.22913,1.5125 0.22913,3.9875 0,5.5 -0.22912,1.5125 -0.41659,0.275 -0.41659,-2.75 z m -298.09348,-7.02087 c -6.64917,-0.96884 -12.33255,-4.6707 -14.79989,-9.63989 -1.69976,-3.42329 -1.93858,-6.64175 -2.20431,-29.7063 l -0.29801,-25.86706 34.79801,0.73175 c 19.13891,0.40246 35.13552,0.93169 35.54802,1.17607 0.4125,0.24438 0.74012,11.33028 0.72804,24.63532 -0.0193,21.30526 -0.24095,24.67307 -1.8577,28.23235 -2.24025,4.93188 -6.92692,9.03308 -11.90139,10.41462 -4.22487,1.17337 -32.0085,1.18943 -40.01277,0.0231 z m 25.60297,-9.84002 c 1.06619,-0.67617 1.08638,-2.42275 0.1088,-9.41076 l -1.20035,-8.5805 3.62642,-4.23665 c 7.8685,-9.19258 5.27939,-21.04388 -5.54343,-25.37431 -12.46235,-4.98645 -25.4615,7.64351 -20.73697,20.14801 0.58499,1.54831 2.24218,4.05051 3.68264,5.56046 l 2.61903,2.74536 -1.16112,8.67811 c -0.8459,6.32218 -0.86224,9.03824 -0.0602,10.00464 1.24371,1.49858 16.43874,1.87765 18.66518,0.46564 z M 728.36996,553 c 0,-5.775 0.16528,-8.1375 0.36728,-5.25 0.202,2.8875 0.202,7.6125 0,10.5 -0.202,2.8875 -0.36728,0.525 -0.36728,-5.25 z M 291.37817,536 c 0,-6.325 0.16237,-8.9125 0.36082,-5.75 0.19845,3.1625 0.19845,8.3375 0,11.5 -0.19845,3.1625 -0.36082,0.575 -0.36082,-5.75 z m 436.87401,-0.5 c 0.0111,-2.2 0.21589,-2.98225 0.45508,-1.73834 0.23919,1.24391 0.23011,3.04391 -0.0202,4 -0.25029,0.95609 -0.446,-0.0617 -0.4349,-2.26166 z M 315.8125,522.31689 c 0.72187,-0.28887 1.58438,-0.25335 1.91667,0.0789 0.33229,0.33229 -0.25834,0.56864 -1.3125,0.52522 -1.16495,-0.048 -1.4019,-0.28494 -0.60417,-0.60416 z M 728.32007,508 c 0,-3.575 0.1815,-5.0375 0.40333,-3.25 0.22182,1.7875 0.22182,4.7125 0,6.5 -0.22183,1.7875 -0.40333,0.325 -0.40333,-3.25 z m -142.35866,-4.14331 c -0.8872,-3.29483 -0.8439,-4.31561 0.21146,-4.98469 2.47683,-1.57026 3.41174,-0.88026 4.54131,3.35168 1.27594,4.78032 0.97684,5.77632 -1.73465,5.77632 -1.3843,0 -2.2063,-1.12846 -3.01812,-4.14331 z M 528,505.30375 c 0,-5.37681 10.22702,-13.51688 18.68071,-14.86868 5.52936,-0.88418 14.39277,1.81254 18.86592,5.74001 3.42672,3.0087 6.45337,7.59333 6.45337,9.77526 0,0.70107 -7.30611,1.04966 -22,1.04966 -20.02014,0 -22,-0.15265 -22,-1.69625 z m -65.50553,-0.3127 c -2.12855,-3.44407 6.80506,-12.15013 14.87501,-14.49613 6.14843,-1.7874 10.92715,-1.33159 16.75873,1.59848 C 498.07624,494.07707 506,502.45177 506,504.64079 506,505.74414 501.96393,506 484.55902,506 c -13.34208,0 -21.67653,-0.38111 -22.06455,-1.00895 z M 604.90322,502.25 c -4.17668,-12.51115 2.7721,-24.77738 16.00601,-28.25438 13.05903,-3.43106 27.36469,7.89144 25.92957,20.52246 L 646.5,497.5 l -18,4.17699 c -9.9,2.29735 -18.9776,4.20985 -20.17245,4.25 -1.64814,0.0554 -2.47458,-0.83202 -3.42433,-3.67699 z m -189.32898,1.85809 c -3.85907,-0.59776 -3.94857,-0.70887 -5.26813,-6.53997 -0.7383,-3.26253 -0.9967,-6.24471 -0.57423,-6.62708 0.42246,-0.38236 3.15154,-1.46863 6.0646,-2.41392 3.62191,-1.17533 7.18084,-3.46331 11.2565,-7.23666 l 5.96002,-5.51792 3.39113,2.58654 c 5.35709,4.08605 7.96081,10.5058 7.34953,18.12106 -0.27863,3.4711 -0.81374,6.80806 -1.18915,7.41547 -0.72652,1.17554 -19.80337,1.32572 -26.99027,0.21248 z M 364.5,503.2901 c -13.11335,-0.42188 -13.00948,-0.37112 -10.56488,-5.16293 4.39685,-8.61853 14.46878,-14.02898 23.74821,-12.7571 8.80537,1.20691 17.75745,8.75627 18.53418,15.63003 L 396.5,503.5 l -11,0.0559 c -6.05,0.0308 -15.5,-0.0889 -21,-0.26581 z m 297.13722,-10.42665 c -0.2129,-0.7499 -0.8231,-3.61345 -1.356,-6.36345 -0.53289,-2.75 -1.15167,-5.675 -1.37506,-6.5 -0.53749,-1.985 6.16555,-2.58466 11.40601,-1.02039 4.02289,1.20083 11.68783,7.40897 11.68783,9.46645 0,0.70207 -3.26563,1.922 -7.75,2.89513 -4.2625,0.92499 -8.75703,1.95268 -9.98785,2.28376 -1.44547,0.38881 -2.37491,0.11918 -2.62493,-0.7615 z M 513.959,489.94242 c -1.19745,-1.68166 -2.01559,-3.15745 -1.81809,-3.27953 1.10393,-0.68234 13.43,-3.40507 13.79672,-3.04758 0.52893,0.51561 -8.05007,9.38469 -9.07774,9.38469 -0.39804,0 -1.70344,-1.37591 -2.90089,-3.05758 z m 58.75629,-6.82522 c -4.11568,-3.15721 -6.95408,-4.4465 -13.42518,-6.09817 -3.69147,-0.9422 -4.2883,-1.49248 -4.84663,-4.4686 -1.35407,-7.21785 2.50403,-16.16409 8.75417,-20.29931 6.02547,-3.98659 14.83154,-3.82984 23.92576,0.42586 7.36895,3.44835 10.80449,7.36661 11.58928,13.21766 0.70213,5.23476 -5.12075,14.1709 -11.08405,17.01024 -7.26851,3.46079 -10.61656,3.50846 -14.91335,0.21232 z M 454.57331,479.37916 C 453.15799,476.28769 452,472.9112 452,471.87584 c 0,-1.03536 2.1375,-4.09064 4.75,-6.78951 3.68828,-3.81022 6.04718,-5.28169 10.55342,-6.58318 3.19188,-0.92187 6.39756,-1.44813 7.12373,-1.16948 0.72617,0.27866 1.60762,2.03813 1.95877,3.90993 0.35115,1.87181 2.00602,5.55969 3.67747,8.19531 1.67146,2.63561 2.86915,4.96188 2.66154,5.16949 -0.20761,0.20761 -2.69784,0.81752 -5.53385,1.35536 -5.35835,1.01619 -11.96871,3.96599 -16.07594,7.17369 -1.31167,1.0244 -2.74118,1.86255 -3.17669,1.86255 -0.43551,0 -1.94982,-2.52938 -3.36514,-5.62084 z M 536,476.5 c 2.68287,-2.85579 4,-3.17692 4,-0.97525 0,0.83861 -1.15429,1.96361 -2.5651,2.5 -3.81032,1.44868 -4.01949,1.22642 -1.4349,-1.52475 z m -140.78859,-0.57644 c -7.03692,-2.14138 -14.22849,-12.95218 -14.20583,-21.35506 0.0385,-14.27333 16.17614,-24.6099 30.39455,-19.46845 2.91252,1.05318 4.08632,1.07725 5.62652,0.11538 2.55117,-1.59323 3.51232,-1.5336 5.37968,0.33376 1.21363,1.21363 1.30272,1.94383 0.41131,3.3712 -0.88124,1.4111 -0.76346,2.75776 0.52225,5.97105 4.16507,10.40954 0.32503,23.05657 -8.66732,28.54548 -5.33249,3.25495 -13.50489,4.29917 -19.46116,2.48664 z M 501.5,469.68604 c -2.75,-1.33174 -5.99102,-3.49955 -7.20227,-4.81734 -7.41322,-8.06531 -6.92282,-22.67816 1.04528,-31.14706 l 2.61406,-2.77836 13.72253,0.27836 13.72254,0.27836 3.20685,4.20701 c 6.22791,8.1703 6.2254,19.57706 -0.006,27.74699 -5.92973,7.77429 -18.1268,10.57888 -27.10288,6.23204 z m -57.93062,-12.76882 c -0.2729,-0.77947 -1.66691,-6.11421 -3.09781,-11.85497 -3.04235,-12.20596 -4.60913,-16.24276 -8.06044,-20.76765 -3.967,-5.201 -7.11382,-6.45948 -33.16113,-13.26179 -2.3375,-0.61044 -4.25,-1.50033 -4.25,-1.97752 0,-0.47719 2.3625,-1.15746 5.25,-1.51171 10.53408,-1.29237 21.15028,-3.94386 22.93452,-5.7281 0.99851,-0.99851 2.23095,-1.81548 2.73875,-1.81548 3.32881,0 10.5149,-9.59021 11.31845,-15.10506 0.19193,-1.31722 0.84067,-3.29494 1.44165,-4.39494 1.23079,-2.25276 3.35414,-11.9166 3.92847,-17.87933 0.20904,-2.17026 0.63136,-4.19721 0.93849,-4.50433 1.00835,-1.00835 2.41874,2.31683 2.43436,5.73932 0.0206,4.51681 2.85044,15.40079 4.32752,16.64434 0.65328,0.55 1.25461,2.46677 1.33627,4.25949 0.0817,1.79272 1.20666,5.39272 2.5,8 1.89305,3.81627 3.41006,5.27667 7.78083,7.49051 2.98613,1.5125 6.67207,2.75 8.19099,2.75 1.51892,0 3.03222,0.43777 3.36291,0.97283 0.84633,1.3694 7.86376,3.12571 15.51679,3.88353 6.45338,0.63902 8.79196,2.36336 4,2.94936 -8.5955,1.05114 -28.33972,6.65805 -32.30823,9.1748 -5.81681,3.68891 -9.77208,11.77225 -12.73162,26.01948 -2.17853,10.48743 -3.44166,13.62809 -4.39077,10.91722 z m 30.61136,-15.44276 C 470.78133,439.00089 468,436.58732 468,436.11098 c 0,-1.43104 2.88369,-3.3697 4.23727,-2.84865 1.52094,0.58549 9.23665,11.59709 8.58356,12.25018 -0.25264,0.25264 -3.24068,-1.56449 -6.64009,-4.03805 z m -4.95117,-55.55428 -3.15012,-3.07981 7.17091,-4.87622 c 3.944,-2.68191 7.3486,-4.69852 7.56578,-4.48134 0.21718,0.21718 -1.71848,3.14134 -4.30147,6.49812 -2.69252,3.49914 -4.45764,6.72531 -4.13689,7.56116 0.78839,2.05452 0.41578,1.86256 -3.14821,-1.62191 z m -55.52685,-5.37774 C 410.01622,376.47209 407,372.6599 407,372.07091 c 0,-2.0745 2.13401,-1.02507 6.79255,3.34033 2.5891,2.42619 5.98233,5.47261 7.54052,6.76984 2.75452,2.29318 2.78094,2.40577 0.95272,4.06028 -1.8001,1.62907 -2.16642,1.38584 -8.58307,-5.69892 z M 394.75,304.33772 c 0.6875,-0.27741 1.8125,-0.27741 2.5,0 0.6875,0.27741 0.125,0.50439 -1.25,0.50439 -1.375,0 -1.9375,-0.22698 -1.25,-0.50439 z m 9.0625,-0.0208 c 0.72187,-0.28887 1.58438,-0.25335 1.91667,0.0789 0.33229,0.33229 -0.25834,0.56864 -1.3125,0.52522 -1.16495,-0.048 -1.4019,-0.28494 -0.60417,-0.60416 z m 28.4375,-0.0331 c 1.5125,-0.22913 3.9875,-0.22913 5.5,0 1.5125,0.22912 0.275,0.41659 -2.75,0.41659 -3.025,0 -4.2625,-0.18747 -2.75,-0.41659 z"
         id="path463" />
      <path
         style="fill:#936750"
         d="m 574,709.98444 c -10.175,-0.45302 -29.075,-1.3144 -42,-1.91416 -12.925,-0.59977 -33.625,-1.53938 -46,-2.08804 -12.375,-0.54865 -36.675,-1.65717 -54,-2.46338 -17.325,-0.80621 -42.75,-1.94594 -56.5,-2.53273 -60.02484,-2.56161 -61.98285,-2.70806 -67.40763,-5.04174 -6.40262,-2.75433 -11.2521,-8.08263 -13.97157,-15.35107 C 292.02229,674.98455 292,674.05249 292,591.91703 v -83.00794 l 2.25,-2.23561 c 1.59477,-1.58457 8.75083,-4.10444 24.5732,-8.65298 20.55358,-5.90864 22.48852,-6.65927 24.40867,-9.46893 5.87908,-8.60259 11.89069,-13.03307 21.19173,-15.61805 4.93435,-1.37138 6.03762,-2.05385 5.87008,-3.63116 -0.65899,-6.20405 -0.84452,-6.32445 -38.63992,-25.07646 -24.21645,-12.01487 -36.91604,-18.84745 -37.67813,-20.27143 -2.94899,-5.51024 4.23258,-43.6173 12.0248,-63.80633 8.31954,-21.5553 26.95834,-41.26547 46.9364,-49.63436 13.83901,-5.79722 7.17315,-5.54739 165.59093,-6.20617 134.19037,-0.55803 146.63699,-0.47172 153.54327,1.06478 23.64915,5.26144 40.05507,20.93549 51.94485,49.62761 9.37563,22.62505 10.67011,41.4781 6.52283,95 -1.55326,20.04537 -2.59011,40.57513 -2.47471,49 0.10923,7.975 0.25202,46 0.3173,84.5 l 0.1187,70 -2.258,5.57935 c -2.76085,6.82184 -8.02033,13.14158 -13.57596,16.31271 C 710.37472,676.69993 686,685.09007 658.5,694.0368 601.79986,712.48338 607.20683,711.46292 574,709.98444 Z m 85.17472,-17.27129 c 54.88657,-17.88601 57.22067,-18.90875 62.57946,-27.42075 6.3633,-10.10756 6.07239,-2.45081 5.40628,-142.2924 -0.16914,-35.50916 0.13522,-46.53001 1.85031,-67 3.17948,-37.94766 3.65061,-60.35978 1.53539,-73.03869 -5.6549,-33.89611 -22.39722,-61.17981 -43.75313,-71.3012 -15.69128,-7.43671 -4.13889,-7.00304 -167.79303,-6.29889 -161.61495,0.69538 -153.55289,0.35501 -167.71545,7.08078 -16.65341,7.90867 -28.21847,18.74741 -38.47431,36.058 -8.34014,14.07712 -14.9398,37.5583 -17.81563,63.38695 -0.88111,7.91345 -0.80927,9.74698 0.45767,11.68056 0.9709,1.48178 14.34173,8.63878 37.77528,20.21995 l 36.27244,17.92632 1.34377,4.58687 c 1.45828,4.97772 1.01507,6.69935 -1.72465,6.69935 -3.23617,0 -11.56902,3.27666 -15.99347,6.28898 -2.4059,1.63802 -5.72484,5.15069 -7.37543,7.80593 -2.91211,4.68461 -3.28638,4.91601 -12.62565,7.80612 -5.29351,1.63813 -15.47457,4.61656 -22.62457,6.61874 -7.77881,2.17827 -13.90367,4.48146 -15.25,5.7346 l -2.25,2.09426 v 82.81496 c 0,79.33873 0.0809,83.02777 1.92638,87.88477 2.78889,7.33977 6.32689,11.4392 12.46389,14.44175 5.92236,2.89754 1.33439,2.53572 69.60973,5.48964 13.475,0.58299 38.45,1.71442 55.5,2.51429 17.05,0.79986 51.925,2.38416 77.5,3.52066 25.575,1.1365 54.825,2.45595 65,2.93211 31.83273,1.48968 26.82176,2.45608 84.17472,-16.23366 z M 571.5,691.1001 l -6,-0.6001 0.0859,-6.0631 C 565.77285,671.23335 576.81493,660 589.60667,660 c 4.3344,0 4.54588,0.91041 4.18132,18 l -0.28799,13.5 -8,0.1001 c -4.4,0.0551 -10.7,-0.16995 -14,-0.5 z M 592.5,676 v -14.5 l -2.89514,-0.33043 c -3.91307,-0.4466 -11.059,2.41226 -15.26891,6.10861 -4.66641,4.09717 -7.45148,9.9044 -8.08135,16.85067 l -0.52354,5.77364 6.88447,0.37284 c 3.78646,0.20506 9.80947,0.3395 13.38447,0.29875 l 6.5,-0.0741 v -14.5 z M 542,689.28213 c -1.925,-0.13186 -44.675,-2.09296 -95,-4.35798 -50.325,-2.26503 -91.99861,-4.52664 -92.60803,-5.02581 -0.60941,-0.49917 -1.38489,-3.55648 -1.72328,-6.79404 -0.33839,-3.23755 -1.63397,-8.52298 -2.87907,-11.74538 -1.2451,-3.22241 -2.26962,-6.28448 -2.27672,-6.80462 -0.0148,-1.08779 2.95903,-1.04551 69.9871,0.99509 96.14437,2.92701 137.79157,4.40884 138.30366,4.92094 0.28581,0.28581 -0.66328,2.69309 -2.10909,5.34952 C 550.74921,671.23143 548,680.78236 548,685.60311 c 0,3.51603 -0.84203,4.03234 -6,3.67902 z m 71,-13.20034 c 0,-6.00502 -0.22027,-11.51752 -0.4895,-12.25 -0.26922,-0.73249 -0.0951,-1.95105 0.38697,-2.70792 C 613.77842,659.7407 702.1822,637 706.67826,637 c 2.18368,0 2.32043,0.37166 2.29978,6.25 -0.0319,9.08331 -2.54494,14.05972 -8.1244,16.08837 C 691.63399,662.69056 615.00528,687 613.65808,687 613.29613,687 613,682.0868 613,676.08179 Z m -289.10213,3.99575 c -4.73116,-0.31765 -9.29525,-1.15496 -10.14241,-1.8607 -2.9426,-2.45137 -3.83666,-6.68118 -3.54408,-16.76718 0.27497,-9.47898 0.39588,-9.96488 2.55597,-10.27148 5.91493,-0.83956 16.45132,6.4098 20.31037,13.97416 2.98311,5.84739 4.02917,12.59792 2.23083,14.39626 -0.79828,0.79827 -1.75676,1.37379 -2.12998,1.27894 -0.37321,-0.0948 -4.54953,-0.43235 -9.2807,-0.75 z M 334.97804,675.25 c -0.0268,-4.57113 -3.15302,-11.75375 -6.78699,-15.59325 C 324.86697,656.14467 316.93256,652 313.53324,652 H 311 v 9.95295 c 0,15.46813 1.26013,16.87116 15.25,16.97937 L 335,679 334.978,675.25 Z M 509,650.45008 C 457.35861,648.67669 368.984,646.0029 353,645.73027 L 339.5,645.5 334.78439,641.83471 C 330.00309,638.11838 320.60032,634 316.89675,634 c -1.11553,0 -2.89865,-0.46583 -3.96249,-1.03518 C 311.19411,632.03352 311,630.77593 311,620.43343 c 0,-9.72921 0.25189,-11.59286 1.63884,-12.12508 1.58403,-0.60785 115.63386,1.80143 174.86116,3.69391 15.95,0.50965 45.425,1.22562 65.5,1.59105 20.075,0.36543 37.2875,1.07227 38.25,1.57074 1.52319,0.78885 1.75,2.50598 1.75,13.24869 0,8.68227 -0.37068,12.63426 -1.25,13.32667 -0.6875,0.54136 -3.44084,1.27016 -6.11853,1.61956 -5.25552,0.68576 -15.89247,5.04567 -17.7394,7.27108 -1.35437,1.63192 -6.59582,1.6159 -58.89207,-0.17997 z m 103.6646,-17.67156 c -0.49566,-13.12806 -0.3548,-17.49956 0.5926,-18.39139 0.68354,-0.64344 14.5178,-4.19561 30.7428,-7.89369 16.225,-3.69809 36.7,-8.47112 45.5,-10.60674 8.8,-2.13562 16.84818,-3.88379 17.88484,-3.88482 1.79646,-0.002 1.85523,0.78105 1.25337,16.69476 -0.34732,9.18314 -0.97182,17.03697 -1.38778,17.45293 -0.41596,0.41596 -9.97998,3.03117 -21.25336,5.81157 -11.27339,2.7804 -32.00727,7.97658 -46.07529,11.54707 C 625.85375,647.07869 614.11209,650 613.82918,650 c -0.28291,0 -0.80697,-7.74967 -1.16458,-17.22148 z M 523,604.8449 c -18.425,-0.47409 -34.12019,-1.09115 -34.87821,-1.37125 -0.95728,-0.35374 0.15431,-2.12969 3.63957,-5.81484 6.95314,-7.35192 9.29216,-12.43336 10.61863,-23.0686 l 1.12001,-8.97985 20.5,0.20658 c 33.73692,0.33996 44.88653,1.12906 49.5,3.50328 2.2,1.13218 7.375,2.79324 11.5,3.69125 l 7.5,1.63274 V 590.07211 605.5 l -18,0.10344 c -9.9,0.0569 -33.075,-0.28445 -51.5,-0.75854 z m 89.60699,-2.42669 C 612.27314,601.54823 612,593.21358 612,583.89677 c 0,-16.60936 0.0439,-16.9588 2.25,-17.92181 1.2375,-0.54019 9.675,-2.5439 18.75,-4.45268 9.075,-1.90878 29.55,-6.36306 45.5,-9.8984 15.95,-3.53534 29.33333,-6.22301 29.74073,-5.9726 0.4074,0.25041 0.72549,8.32481 0.70686,17.9431 -0.033,17.06577 -0.0871,17.51068 -2.24073,18.43572 -1.21377,0.52136 -9.40686,2.55517 -18.20686,4.51959 -16.74097,3.73707 -46.79937,10.74426 -64.21956,14.97081 -12.10773,2.93761 -10.92555,2.8467 -11.67345,0.89771 z M 348.299,600.59154 c -22.40822,-0.69485 -35.59259,-1.48349 -36.27851,-2.17004 -0.69727,-0.69793 -0.97922,-6.15199 -0.79899,-15.45615 l 0.2785,-14.37764 6.21829,-1.25735 c 3.42006,-0.69155 8.14195,-2.23874 10.4931,-3.4382 4.21249,-2.14906 4.71166,-2.17039 34.2448,-1.46382 16.4835,0.39436 30.3241,0.93587 30.7569,1.20336 0.4328,0.26748 0.78691,2.46263 0.78691,4.8781 0,9.94643 2.95514,18.34802 9.44346,26.84818 1.9561,2.56263 3.55654,5.10543 3.55654,5.65067 0,1.16854 -9.81496,1.0988 -58.701,-0.41711 z m 77.3848,-10.04035 C 419.88705,588.48381 416.08188,584.9191 413.35339,579 c -1.33552,-2.89725 -1.63404,-7.7788 -1.73338,-28.34559 -0.066,-13.66507 0.16088,-25.30003 0.5042,-25.85548 0.67048,-1.08475 33.65687,-1.04544 58.37579,0.0696 l 14,0.63151 0.2669,25.75672 c 0.24597,23.7373 0.11639,26.0502 -1.65269,29.5 -2.42193,4.7229 -5.62198,7.72184 -10.34574,9.69555 -4.9995,2.08893 -41.29108,2.16517 -47.08467,0.0989 z m 44.53515,-0.5952 c 4.97447,-1.38154 9.66114,-5.48274 11.90139,-10.41462 1.61675,-3.55928 1.83836,-6.92709 1.8577,-28.23235 0.0121,-13.30504 -0.31554,-24.39094 -0.72804,-24.63532 -0.4125,-0.24438 -16.40911,-0.77361 -35.54802,-1.17607 l -34.79801,-0.73175 0.29801,25.86706 c 0.26573,23.06455 0.50455,26.28301 2.20431,29.7063 2.46734,4.96919 8.15072,8.67105 14.79989,9.63989 8.00427,1.16629 35.7879,1.15023 40.01277,-0.0231 z m -33.07498,-10.28252 c -0.80204,-0.9664 -0.7857,-3.68246 0.0602,-10.00464 l 1.16112,-8.67811 -2.61903,-2.74536 c -1.44046,-1.50995 -3.09765,-4.01215 -3.68264,-5.56046 -4.72453,-12.5045 8.27462,-25.13446 20.73697,-20.14801 10.82282,4.33043 13.41193,16.18173 5.54343,25.37431 l -3.62642,4.23665 1.20035,8.5805 c 0.97758,6.98801 0.95739,8.73459 -0.1088,9.41076 -2.22644,1.41201 -17.42147,1.03294 -18.66518,-0.46564 z M 454.99421,576.25 c -0.003,-1.5125 -0.44119,-5.40874 -0.97334,-8.65831 -0.95914,-5.85699 -0.93843,-5.94054 2.3851,-9.61929 7.86171,-8.70198 6.54196,-18.88655 -3.09023,-23.84744 -5.85455,-3.01528 -15.84029,0.0401 -18.69964,5.72158 -3.41952,6.79454 -2.71169,12.00268 2.42663,17.8549 2.35992,2.68781 3.01927,4.24043 2.6299,6.19285 -0.28581,1.43314 -0.8372,5.41821 -1.22531,8.85571 L 437.74167,579 H 446.37083 455 l -0.006,-2.75 z M 507.75,557.26496 503,556.89042 v -14.94521 c 0,-11.24968 0.30909,-14.96367 1.25,-15.01988 7.86595,-0.46989 41.49193,0.44553 42.34409,1.15275 0.62014,0.51468 1.3764,3.29516 1.68057,6.17885 0.68381,6.48279 3.16376,13.89321 6.32574,18.90211 1.31978,2.09067 2.3996,4.03516 2.3996,4.32109 0,0.56957 -41.60291,0.38781 -49.25,-0.21517 z m 78.75,-0.94106 c -12.1583,-2.69974 -20.93778,-12.3801 -21.6824,-23.90726 L 564.5,527.5 l 13.36163,-0.2798 c 8.99913,-0.18845 13.81492,0.0964 14.75,0.87244 1.05089,0.87217 1.38837,4.23384 1.38837,13.8298 0,15.0646 -0.46784,15.96294 -7.5,14.40146 z m 6,-14.3376 V 528.5 l -12.91886,-0.28114 c -7.10538,-0.15462 -13.30486,0.10486 -13.77663,0.57663 -1.48519,1.48519 1.23067,11.03297 4.53184,15.93197 3.49296,5.18362 7.69768,8.03969 14.60309,9.91922 7.79022,2.12036 7.56056,2.50493 7.56056,-12.66038 z m 19.61408,0.2637 c -0.0506,-7.5625 0.24052,-14.26495 0.64695,-14.89434 0.40644,-0.62939 10.18897,-3.24455 21.73897,-5.81147 11.55,-2.56692 32.44809,-7.35477 46.4402,-10.63966 13.99211,-3.28489 26.0417,-5.74172 26.77685,-5.45961 1.04968,0.4028 1.27722,3.67723 1.0598,15.25148 l -0.27685,14.73856 -15,3.30111 C 633.88774,551.85518 614.68856,556 613.5319,556 c -1.03233,0 -1.34617,-3.04367 -1.41782,-13.75 z M 354.25,554.26646 c -6.1875,-0.18258 -11.25,-0.54915 -11.25,-0.8146 0,-0.26544 1.60273,-2.89652 3.56163,-5.84683 3.82518,-5.76115 6.42899,-13.02906 6.45368,-18.01396 0.0281,-5.68243 -0.063,-5.65922 21.05744,-5.36328 L 393.5,524.5 v 15 15 l -14,0.0492 c -7.7,0.0271 -19.0625,-0.10018 -25.25,-0.28275 z m -43.58333,-4.93313 C 310.3,548.96667 310,542.71481 310,535.44032 c 0,-10.47077 0.29431,-13.33928 1.41265,-13.76843 2.63889,-1.01263 23.54474,0.57184 24.61869,1.86588 1.18418,1.42685 -0.23168,9.04033 -2.47603,13.31433 -2.07743,3.95611 -8.56225,9.84485 -12.77319,11.59907 -3.84626,1.60231 -8.9502,2.04742 -10.11545,0.88216 z m 10.90419,-2.7141 c 2.78898,-1.29868 6.45519,-4.04066 8.14714,-6.09329 3.22,-3.90641 7.05369,-15.19429 5.61622,-16.53634 C 334.8754,523.56123 329.325,523.05083 323,522.85537 L 311.5,522.5 l -0.28339,11.94178 c -0.15587,6.56798 -0.0575,12.53048 0.21861,13.25 0.75245,1.96086 4.46492,1.568 10.13564,-1.07255 z M 527.75,508.31067 c -6.05865,-1.58329 5.29236,-15.66269 14.76589,-18.31512 11.87402,-3.32452 25.51934,2.66451 29.88691,13.11757 1.12951,2.70331 1.21509,3.86899 0.34773,4.73635 -1.1274,1.1274 -40.89177,1.53493 -45.00053,0.4612 z M 572,505.95034 c 0,-2.18193 -3.02665,-6.76656 -6.45337,-9.77526 -4.47315,-3.92747 -13.33656,-6.62419 -18.86592,-5.74001 -5.85697,0.93656 -13.19696,5.25938 -16.13918,9.50501 C 525.57629,507.10491 525.28714,507 550,507 c 14.69389,0 22,-0.34859 22,-1.04966 z M 585.05258,505.25 c -1.58045,-5.69093 -1.30045,-7.20526 1.53134,-8.2819 3.40485,-1.29453 3.96302,-0.82445 5.29308,4.45772 1.75608,6.97402 1.57146,7.57418 -2.33,7.57418 -3.13832,0 -3.5479,-0.34174 -4.49442,-3.75 z m 6.30918,1.97368 c 0.77008,-1.24602 -1.67205,-9.22519 -2.81835,-9.20837 -0.57388,0.008 -1.64062,0.39393 -2.37054,0.85669 -2.09906,1.33076 0.29842,9.128 2.80666,9.128 1.04634,0 2.11834,-0.34934 2.38223,-0.77632 z m -111.15148,0.0275 c -21.0704,-0.32183 -21.69217,-0.51662 -18.86795,-5.91091 5.65103,-10.79356 20.30393,-16.12916 31.30178,-11.39801 8.08145,3.47654 16.73428,13.69197 14.19213,16.75507 -0.59462,0.71647 -2.48853,1.20049 -4.20868,1.07558 -1.72016,-0.1249 -11.80794,-0.35968 -22.41728,-0.52173 z M 506,504.64079 c 0,-2.18902 -7.92376,-10.56372 -11.87179,-12.54739 -5.83158,-2.93007 -10.6103,-3.38588 -16.75873,-1.59848 -8.06995,2.346 -17.00356,11.05206 -14.87501,14.49613 C 462.88249,505.61889 471.21694,506 484.55902,506 501.96393,506 506,505.74414 506,504.64079 Z m 99.64306,1.85941 c -1.93231,-1.93231 -3.6374,-7.82742 -3.61552,-12.5002 0.0323,-6.90513 6.13016,-15.89978 13.33498,-19.66986 3.99583,-2.0909 12.65498,-2.8095 16.91461,-1.40369 5.48309,1.80958 11.45166,6.62162 13.7144,11.05695 2.86055,5.60713 3.66471,12.22708 1.6849,13.87018 -0.84564,0.70181 -9.55627,3.06311 -19.35697,5.24732 -9.80071,2.18422 -18.55954,4.19533 -19.46409,4.46914 -0.90454,0.27382 -2.35008,-0.20761 -3.21231,-1.06984 z m 22.85694,-4.82321 18,-4.17699 0.3388,-2.98192 c 1.43512,-12.63102 -12.87054,-23.95352 -25.92957,-20.52246 -13.23391,3.477 -20.18269,15.74323 -16.00601,28.25438 0.94975,2.84497 1.77619,3.73238 3.42433,3.67699 1.19485,-0.0401 10.27245,-1.95265 20.17245,-4.25 z m -256.48749,3.35437 c -23.04,-0.59756 -22.84543,-0.51822 -19.13022,-7.80062 4.17418,-8.18208 12.60356,-13.24541 21.98983,-13.20878 6.70434,0.0262 12.36114,2.36515 17.04293,7.04693 7.00258,7.00259 8.062,15.89323 1.75316,14.71247 -0.64251,-0.12025 -10.38758,-0.45775 -21.6557,-0.75 z m 24.205,-4.03126 c -0.45038,-3.98566 -4.80691,-9.67517 -9.52609,-12.44079 -8.78928,-5.15086 -19.11486,-4.31257 -26.68405,2.16638 -4.7895,4.09963 -8.79502,11.05008 -6.78776,11.77823 1.62756,0.5904 18.01598,1.12449 32.28039,1.05199 l 11,-0.0559 -0.28249,-2.4999 z m 15.08059,3.7499 c -1.53473,-2.02622 -4.4631,-13.99893 -3.59489,-14.69782 0.43823,-0.35277 3.4685,-1.51054 6.73393,-2.57282 4.24475,-1.38087 7.56095,-3.43479 11.63366,-7.20539 3.13308,-2.90069 6.26889,-5.27397 6.96847,-5.27397 2.53509,0 7.80627,5.04948 9.99846,9.57795 2.43748,5.03516 2.92571,13.75781 1.04669,18.70002 L 443.0495,506 h -15.4023 c -11.15023,0 -15.66369,-0.34509 -16.3491,-1.25 z m 31.26641,-0.85439 c 0.37541,-0.60741 0.91052,-3.94437 1.18915,-7.41547 0.61128,-7.61526 -1.99244,-14.03501 -7.34953,-18.12106 l -3.39113,-2.58654 -5.96002,5.51792 c -4.07566,3.77335 -7.63459,6.06133 -11.2565,7.23666 -2.91306,0.94529 -5.64214,2.03156 -6.0646,2.41392 -0.42247,0.38237 -0.16407,3.36455 0.57423,6.62708 1.31956,5.8311 1.40906,5.94221 5.26813,6.53997 7.1869,1.11324 26.26375,0.96306 26.99027,-0.21248 z m 70.42002,-12.91514 c -1.75093,-2.21074 -2.95361,-4.61867 -2.6726,-5.35095 0.29657,-0.77285 2.77874,-1.56549 5.9165,-1.88934 6.768,-0.69852 13.38203,-3.76492 19.237,-8.91867 4.75657,-4.1869 6.10079,-3.84712 5.36365,1.35576 -0.24818,1.75169 -1.4354,2.6915 -4.82908,3.82273 -3.0314,1.01047 -6.77359,3.7029 -11.46659,8.25 -3.83162,3.7125 -7.28131,6.75 -7.66597,6.75 -0.38466,0 -2.13197,-1.80879 -3.88291,-4.01953 z m 8.99489,-2.4595 c 2.41772,-2.46347 4.19891,-4.67102 3.95821,-4.90566 -0.36672,-0.35749 -12.69279,2.36524 -13.79672,3.04758 -0.5582,0.34503 3.90385,6.33711 4.71898,6.33711 0.39803,0 2.70182,-2.01557 5.11953,-4.47903 z m 15.45548,-10.49622 c 1.41081,-0.53639 2.5651,-1.66139 2.5651,-2.5 0,-2.20167 -1.31713,-1.88054 -4,0.97525 -2.58459,2.75117 -2.37542,2.97343 1.4349,1.52475 z M 660.54653,493.75 c -0.21489,-0.6875 -0.67795,-3.05 -1.02903,-5.25 -0.35108,-2.2 -1.16043,-5.48708 -1.79855,-7.30462 -0.95408,-2.71745 -0.89892,-3.48157 0.31041,-4.3005 2.17239,-1.47108 11.14575,-0.35923 15.59304,1.93207 4.97071,2.56098 10.80751,8.61034 10.09623,10.46391 -0.3235,0.84301 -4.35006,2.29877 -9.88228,3.57283 -10.76337,2.47879 -12.75065,2.61132 -13.28982,0.88631 z M 674.25,491.34119 c 4.48437,-0.97313 7.75,-2.19306 7.75,-2.89513 0,-2.05748 -7.66494,-8.26562 -11.68783,-9.46645 -5.24046,-1.56427 -11.9435,-0.96461 -11.40601,1.02039 0.22339,0.825 0.84217,3.75 1.37506,6.5 1.5003,7.74221 1.52459,7.78568 3.98093,7.12495 1.23082,-0.33108 5.72535,-1.35877 9.98785,-2.28376 z m -221.12616,-11.85244 -3.37617,-7.50907 2.64545,-3.99753 c 3.32068,-5.0179 9.20451,-9.32959 14.91204,-10.9276 7.16223,-2.0053 8.75425,-1.3136 10.69056,4.64481 0.92931,2.85964 2.88544,6.76712 4.34696,8.68327 3.89662,5.10873 3.53599,6.61246 -1.59268,6.64111 -4.9693,0.0278 -13.9191,3.47798 -18.92391,7.29534 -1.93318,1.47451 -3.9224,2.68043 -4.42048,2.67983 -0.49809,-6e-4 -2.42488,-3.38017 -4.28177,-7.51016 z m 7.9913,3.6487 c 4.10723,-3.2077 10.71759,-6.1575 16.07594,-7.17369 2.83601,-0.53784 5.32624,-1.14775 5.53385,-1.35536 0.20761,-0.20761 -0.99008,-2.53388 -2.66154,-5.16949 -1.67145,-2.63562 -3.32632,-6.3235 -3.67747,-8.19531 -0.35115,-1.8718 -1.2326,-3.63127 -1.95877,-3.90993 -0.72617,-0.27865 -3.93185,0.24761 -7.12373,1.16948 -4.50624,1.30149 -6.86514,2.77296 -10.55342,6.58318 -2.6125,2.69887 -4.75,5.75415 -4.75,6.78951 0,2.36233 4.86954,13.12416 5.93845,13.12416 0.43551,0 1.86502,-0.83815 3.17669,-1.86255 z M 572.5,484.45663 C 569.27621,481.80083 560.15045,478 556.99767,478 554.35291,478 553,475.04287 553,469.26209 c 0,-6.68358 3.86695,-14.20567 9.20152,-17.89903 3.66452,-2.53712 4.99841,-2.86246 11.71689,-2.85776 6.40519,0.004 8.6044,0.48912 14.17336,3.12341 7.09927,3.35818 10.04596,6.56501 11.76426,12.80284 0.98404,3.57228 0.81264,4.4041 -1.87569,9.10281 -4.00444,6.99903 -7.2428,10.02633 -12.72273,11.89353 -6.31403,2.15141 -9.23726,1.92886 -12.75761,-0.97126 z m 15.12864,-1.55175 c 5.9633,-2.83934 11.78618,-11.77548 11.08405,-17.01024 -0.78479,-5.85105 -4.22033,-9.76931 -11.58928,-13.21766 -9.09422,-4.2557 -17.90029,-4.41245 -23.92576,-0.42586 -6.25014,4.13522 -10.10824,13.08146 -8.75417,20.29931 0.55833,2.97612 1.15516,3.5264 4.84663,4.4686 6.4711,1.65167 9.3095,2.94096 13.42518,6.09817 4.29679,3.29614 7.64484,3.24847 14.91335,-0.21232 z m -189.54306,-5.01526 c -10.03717,-1.91326 -16.93209,-10.10839 -17.82094,-21.1815 -0.56254,-7.00814 0.77383,-11.24123 5.20961,-16.50197 5.86135,-6.95143 16.81364,-9.89553 25.07505,-6.74047 4.19196,1.60092 4.70718,1.61218 6.33561,0.13848 2.40593,-2.17734 3.36538,-2.0311 6.15488,0.93819 1.92954,2.05391 2.17394,2.88577 1.27208,4.32987 -0.8602,1.3774 -0.661,3.13627 0.86821,7.66594 5.90416,17.48874 -9.04899,34.79126 -27.0945,31.35146 z m 16.58699,-4.4527 c 8.99235,-5.48891 12.83239,-18.13594 8.66732,-28.54548 -1.28571,-3.21329 -1.40349,-4.55995 -0.52225,-5.97105 0.89141,-1.42737 0.80232,-2.15757 -0.41131,-3.3712 -1.86736,-1.86736 -2.82851,-1.92699 -5.37968,-0.33376 -1.5402,0.96187 -2.714,0.9378 -5.62652,-0.11538 -14.21841,-5.14145 -30.35607,5.19512 -30.39455,19.46845 -0.0227,8.40288 7.16891,19.21368 14.20583,21.35506 5.95627,1.81253 14.12867,0.76831 19.46116,-2.48664 z m 85.86491,-2.49329 c -5.92913,-2.95769 -9.2969,-6.68819 -11.6258,-12.87796 -3.15921,-8.39658 -0.99831,-18.52459 5.40133,-25.31567 L 496.9045,430 h 14.45886 14.45885 l 2.62521,3.11988 c 8.10984,9.63799 8.49446,21.7122 1.00445,31.53211 -5.92439,7.76728 -19.87222,10.80226 -28.91439,6.29164 z m 21.22698,-1.82347 c 11.86499,-6.05306 15.21906,-22.42674 6.84453,-33.41315 l -3.20685,-4.20701 -13.72254,-0.27836 -13.72253,-0.27836 -2.61406,2.77836 c -7.9681,8.4689 -8.4585,23.08175 -1.04528,31.14706 1.21125,1.31779 4.45227,3.4856 7.20227,4.81734 6.05226,2.93092 13.83623,2.71356 20.26446,-0.56588 z M 696,462.27967 c -6.875,-3.52959 -29.15,-14.9633 -49.5,-25.40826 -20.35,-10.44495 -37.65216,-19.63219 -38.44924,-20.41607 -1.24596,-1.22533 -1.27002,-2.86505 -0.17153,-11.69029 C 609.55429,391.30759 610.04932,389 611.26118,389 c 0.96657,0 10.58353,5.0779 48.23882,25.47083 9.35,5.06366 24.77029,13.3848 34.2673,18.4914 9.49702,5.10661 17.47351,9.61839 17.72554,10.02618 0.62407,1.00978 -1.57295,24.3602 -2.36259,25.11014 -0.34664,0.32921 -6.25525,-2.28929 -13.13025,-5.81888 z m -252.76505,-1.92231 c -0.52269,-1.02155 -2.42754,-7.86357 -4.233,-15.20449 -5.4152,-22.01789 -7.91171,-24.38276 -32.62387,-30.90367 L 392.5,410.58712 353.83229,410.04356 c -21.26723,-0.29896 -38.98524,-0.86157 -39.37335,-1.25025 -0.82973,-0.83095 2.23158,-19.88383 3.37922,-21.03147 0.43085,-0.43085 20.33102,-0.66602 44.2226,-0.5226 L 405.5,387.5 l 0.28893,8.75 c 0.23107,6.99751 0.59047,8.75 1.79449,8.75 3.23881,0 14.60755,-3.34771 14.91944,-4.39327 0.18157,-0.6087 0.5978,-3.70408 0.92494,-6.87862 0.58551,-5.68156 0.55789,-5.76262 -1.76454,-5.17973 -1.94165,0.48732 -3.11091,-0.30549 -6.60443,-4.47811 L 410.81376,379 H 366.3755 c -36.81573,0 -44.52891,-0.23622 -44.96672,-1.37711 -1.15626,-3.01317 9.15309,-25.21355 12.96628,-27.92188 0.61872,-0.43944 29.24994,-0.5531 63.62494,-0.25258 34.375,0.30052 93.775,0.82025 132,1.15494 38.225,0.3347 69.6886,0.78697 69.91912,1.00504 0.23052,0.21807 -0.99677,4.78289 -2.72729,10.14404 -1.73053,5.36115 -3.73419,11.99755 -4.45259,14.74755 l -1.30616,5 -10.21654,-0.0217 c -5.6191,-0.012 -28.4374,-0.12446 -50.70735,-0.25 L 490.01839,381 l -2.2592,-3.48762 c -1.24255,-1.91819 -2.81511,-3.49319 -3.49457,-3.5 -0.67946,-0.007 -3.27618,2.57512 -5.7705,5.73762 l -4.53513,5.75 0.2705,9 0.27051,9 7,1.75407 c 3.85,0.96473 7.54396,1.54847 8.2088,1.29719 0.77675,-0.29357 1.31287,-3.42242 1.5,-8.75406 L 491.5,389.5 l 48.12245,-0.13785 c 26.46734,-0.0758 48.61148,0.16439 49.20919,0.5338 0.76858,0.475 0.58634,3.73588 -0.62245,11.13785 L 586.5,411.5 h -46 -46 l -11.79524,2.81032 c -20.68832,4.92918 -24.13331,6.76213 -28.12407,14.96381 -1.39853,2.87423 -3.84574,10.99779 -5.43823,18.05235 -3.04365,13.4831 -4.28036,16.21104 -5.90751,13.03088 z M 447.96015,446 c 2.95954,-14.24723 6.91481,-22.33057 12.73162,-26.01948 3.96851,-2.51675 23.71273,-8.12366 32.30823,-9.1748 4.75418,-0.58138 2.02979,-2.30837 -4.74251,-3.00627 -3.73893,-0.38531 -8.58892,-1.28552 -10.77777,-2.00048 l -3.97972,-1.29992 -0.56073,-9.49953 -0.56073,-9.49952 4.41624,-5.81116 c 2.42893,-3.19614 4.22869,-5.9987 3.99947,-6.22793 -0.22923,-0.22922 -3.3142,1.54213 -6.85551,3.93634 l -6.43874,4.35311 -8.99848,-0.62518 -8.99848,-0.62518 -1.6715,-6 c -0.91932,-3.3 -1.7144,-7.8 -1.76683,-10 -0.0951,-3.9893 -1.45531,-7.44273 -2.51438,-6.38366 -0.30713,0.30712 -0.72945,2.33407 -0.93849,4.50433 -0.5371,5.57619 -2.66491,15.55545 -3.75899,17.62933 -0.60347,1.1439 -2.10392,1.75 -4.33227,1.75 -6.50289,0 -10.43157,6.06882 -10.49672,16.21482 -0.0161,2.5052 -0.59369,4.0129 -1.77386,4.63026 -2.31787,1.2125 -14.30196,3.79343 -21.5,4.63031 -3.1625,0.36769 -5.75,1.0688 -5.75,1.55802 0,0.48923 1.9125,1.38896 4.25,1.9994 26.04731,6.80231 29.19413,8.06079 33.16113,13.26179 3.45131,4.52489 5.01809,8.56169 8.06044,20.76765 1.4309,5.74076 2.82491,11.0755 3.09781,11.85497 0.94911,2.71087 2.21224,-0.42979 4.39077,-10.91722 z m -26.62708,-63.81892 c -1.55819,-1.29723 -4.95142,-4.34365 -7.54052,-6.76984 C 409.13401,371.04584 407,369.99641 407,372.07091 c 0,0.58899 3.01622,4.40118 6.70272,8.47153 6.41665,7.08476 6.78297,7.32799 8.58307,5.69892 1.82822,-1.65451 1.8018,-1.7671 -0.95272,-4.06028 z m 7.41608,0.66977 c 0.63204,-0.63204 2.85954,-1.4233 4.95,-1.75836 3.78394,-0.60648 3.80895,-0.64183 5.62128,-7.94611 1.00124,-4.0353 1.57786,-7.96904 1.28139,-8.74165 -1.98323,-5.1682 -24.71949,4.48267 -24.55573,10.42319 0.0462,1.67709 8.53389,9.05593 10.50391,9.1317 0.5775,0.0222 1.56712,-0.47674 2.19915,-1.10877 z m 45.53203,-7.24882 c 3.43616,-2.40109 5.66712,-4.6608 5.5,-5.57088 -0.15465,-0.84213 -2.48927,-2.62541 -5.18805,-3.96285 -4.00926,-1.98687 -6.86568,-2.5124 -15.61503,-2.87289 -6.1883,-0.25496 -10.95559,-0.0408 -11.29435,0.50727 -0.3224,0.52166 0.1884,4.28946 1.13511,8.37289 l 1.72128,7.42443 7.97993,0.5 c 9.20508,0.57676 8.26742,0.83841 15.76111,-4.39797 z m 1.07105,68.44159 c -9.75028,-6.86944 -10.19749,-7.51498 -7.32469,-10.57294 C 469.30414,432.11181 470.89066,431 471.55315,431 473.09206,431 484,445.43227 484,447.46839 c 0,2.3446 -1.04797,1.92957 -8.64777,-3.42477 z m 2.03785,-4.64283 c -2.13954,-3.1088 -4.45831,-5.87111 -5.15281,-6.13846 -1.35358,-0.52105 -4.23727,1.41761 -4.23727,2.84865 0,1.08541 12.19461,10.02774 12.82083,9.40153 0.25264,-0.25264 -1.2912,-3.00291 -3.43075,-6.11172 z M 696.5,424.13709 c -11.80313,-6.18196 -55.52803,-29.63482 -74.742,-40.08959 -4.2581,-2.31693 -7.97473,-4.58916 -8.25917,-5.0494 -0.69421,-1.12325 4.16385,-16.36897 7.01275,-22.00764 1.25313,-2.48025 3.1648,-5.60419 4.24817,-6.94209 l 1.96976,-2.43255 17.38524,9.88967 c 9.56189,5.43933 27.51025,15.62061 39.88525,22.62509 12.375,7.00447 24.18312,13.88316 26.24026,15.28597 l 3.74026,2.55058 -0.52721,9.26643 c -1.10245,19.37661 -1.61813,23.76658 -2.78863,23.7394 -0.64057,-0.0149 -7.01468,-3.09101 -14.16468,-6.83587 z m -0.21926,-46.97687 c -19.46116,-11.27723 -28.81572,-16.63606 -46.63938,-26.7177 -8.80716,-4.98162 -16.19635,-9.60749 -16.42043,-10.27973 -0.49567,-1.48701 5.79989,-7.45031 11.30372,-10.70716 5.8113,-3.43878 15.91769,-5.80026 21.8277,-5.10031 12.1187,1.43529 25.70858,11.62967 32.8532,24.64468 7.95197,14.48569 14.61608,36.48556 10.87778,35.91022 -0.32083,-0.0494 -6.532,-3.53687 -13.80259,-7.75 z M 527.5,342.49733 c -0.55,-0.18962 -41.85473,-0.54632 -91.78829,-0.79267 -49.93355,-0.24634 -91.06829,-0.72791 -91.41053,-1.07015 -1.80643,-1.80643 9.93636,-9.48958 20.45727,-13.38491 l 6.74155,-2.49603 122.41585,-0.78176 c 67.32872,-0.42996 123.01743,-0.55091 123.75269,-0.26876 0.94812,0.36383 0.22295,1.86271 -2.49402,5.15497 -2.10696,2.55309 -5.27978,6.77948 -7.05072,9.39198 l -3.21988,4.75 -38.20196,-0.079 C 545.69088,342.87763 528.05,342.68696 527.5,342.49733 Z"
         id="path461" />
      <path
         style="fill:#2f4154"
         d="m 575,708.94681 c -10.175,-0.47616 -39.425,-1.79561 -65,-2.93211 -25.575,-1.1365 -60.45,-2.7208 -77.5,-3.52066 -17.05,-0.79987 -42.025,-1.9313 -55.5,-2.51429 -68.27534,-2.95392 -63.68737,-2.5921 -69.60973,-5.48964 -6.137,-3.00255 -9.675,-7.10198 -12.46389,-14.44175 C 293.08086,675.19136 293,671.50232 293,592.16359 v -82.81496 l 2.25,-2.09426 c 1.34633,-1.25314 7.47119,-3.55633 15.25,-5.7346 7.15,-2.00218 17.33106,-4.98061 22.62457,-6.61874 9.33927,-2.89011 9.71354,-3.12151 12.62565,-7.80612 1.65059,-2.65524 4.96953,-6.16791 7.37543,-7.80593 C 357.5501,476.27666 365.88295,473 369.11912,473 c 2.73972,0 3.18293,-1.72163 1.72465,-6.69935 L 369.5,461.71378 333.22756,443.78746 c -23.43355,-11.58117 -36.80438,-18.73817 -37.77528,-20.21995 -1.26694,-1.93358 -1.33878,-3.76711 -0.45767,-11.68056 2.87583,-25.82865 9.47549,-49.30983 17.81563,-63.38695 10.25584,-17.31059 21.8209,-28.14933 38.47431,-36.058 14.16256,-6.72577 6.1005,-6.3854 167.71545,-7.08078 163.65414,-0.70415 152.10175,-1.13782 167.79303,6.29889 21.35591,10.12139 38.09823,37.40509 43.75313,71.3012 2.11522,12.67891 1.64409,35.09103 -1.53539,73.03869 -1.71509,20.46999 -2.01945,31.49084 -1.85031,67 0.66611,139.84159 0.95702,132.18484 -5.40628,142.2924 -5.35879,8.512 -7.69289,9.53474 -62.57946,27.42075 C 601.82176,711.40289 606.83273,710.43649 575,708.94681 Z M 593.78799,678 c 0.36456,-17.08959 0.15308,-18 -4.18132,-18 -12.79174,0 -23.83382,11.23335 -24.0208,24.4369 L 565.5,690.5 l 6,0.6001 c 3.3,0.33005 9.6,0.55505 14,0.5 l 8,-0.1001 z M 548,685.60311 c 0,-4.82075 2.74921,-14.37168 5.69457,-19.78326 1.44581,-2.65643 2.3949,-5.06371 2.10909,-5.34952 -0.51209,-0.5121 -42.15929,-1.99393 -138.30366,-4.92094 -67.02807,-2.0406 -70.00194,-2.08288 -69.9871,-0.99509 0.007,0.52014 1.03162,3.58221 2.27672,6.80462 1.2451,3.2224 2.54068,8.50783 2.87907,11.74538 0.33839,3.23756 1.11387,6.29487 1.72328,6.79404 0.60942,0.49917 42.28303,2.76078 92.60803,5.02581 50.325,2.26502 93.075,4.22612 95,4.35798 5.15797,0.35332 6,-0.16299 6,-3.67902 z m 88.90808,-5.68975 c 28.90233,-9.06608 58.36479,-18.54586 63.94556,-20.57499 5.57946,-2.02865 8.09248,-7.00506 8.1244,-16.08837 0.0207,-5.87834 -0.1161,-6.25 -2.29978,-6.25 -4.49606,0 -92.89984,22.7407 -93.78079,24.12387 -0.48205,0.75687 -0.65619,1.97543 -0.38697,2.70792 0.26923,0.73248 0.4895,6.24498 0.4895,12.25 0,6.00501 0.29613,10.91821 0.65808,10.91821 0.36194,0 10.82444,-3.18899 23.25,-7.08664 z M 335.30855,679.5486 c 1.79834,-1.79834 0.75228,-8.54887 -2.23083,-14.39626 -3.85905,-7.56436 -14.39544,-14.81372 -20.31037,-13.97416 -2.16009,0.3066 -2.281,0.7925 -2.55597,10.27148 -0.29258,10.086 0.60148,14.31581 3.54408,16.76718 0.84716,0.70574 5.41125,1.54305 10.14241,1.8607 4.73117,0.31765 8.90749,0.65515 9.2807,0.75 0.37322,0.0948 1.3317,-0.48067 2.12998,-1.27894 z m 232.58352,-28.91855 c 1.84693,-2.22541 12.48388,-6.58532 17.7394,-7.27108 2.67769,-0.3494 5.43103,-1.0782 6.11853,-1.61956 0.87932,-0.69241 1.25,-4.6444 1.25,-13.32667 0,-10.74271 -0.22681,-12.45984 -1.75,-13.24869 -0.9625,-0.49847 -18.175,-1.20531 -38.25,-1.57074 -20.075,-0.36543 -49.55,-1.0814 -65.5,-1.59105 -59.2273,-1.89248 -173.27713,-4.30176 -174.86116,-3.69391 -1.38695,0.53222 -1.63884,2.39587 -1.63884,12.12508 0,10.3425 0.19411,11.60009 1.93426,12.53139 1.06384,0.56935 2.84696,1.03518 3.96249,1.03518 3.70357,0 13.10634,4.11838 17.88764,7.83471 L 339.5,645.5 353,645.73027 c 15.984,0.27263 104.35861,2.94642 156,4.71981 52.29625,1.79587 57.5377,1.81189 58.89207,0.17997 z m 72.02971,-7.12184 c 14.06802,-3.57049 34.8019,-8.76667 46.07529,-11.54707 11.27338,-2.7804 20.8374,-5.39561 21.25336,-5.81157 0.41596,-0.41596 1.04046,-8.26979 1.38778,-17.45293 0.60186,-15.91371 0.54309,-16.69655 -1.25337,-16.69476 -1.03666,10e-4 -9.08484,1.7492 -17.88484,3.88482 -8.8,2.13562 -29.275,6.90865 -45.5,10.60674 -16.225,3.69808 -30.05926,7.25025 -30.7428,7.89369 -0.9474,0.89183 -1.08826,5.26333 -0.5926,18.39139 0.35761,9.47181 0.88167,17.22148 1.16458,17.22148 0.28291,0 12.02457,-2.92131 26.0926,-6.49179 z M 592.5,590.07211 v -15.4279 l -7.5,-1.63274 c -4.125,-0.89801 -9.3,-2.55907 -11.5,-3.69125 -4.61347,-2.37422 -15.76308,-3.16332 -49.5,-3.50328 l -20.5,-0.20658 -1.12001,8.97985 c -1.32647,10.63524 -3.66549,15.71668 -10.61863,23.0686 -3.48526,3.68515 -4.59685,5.4611 -3.63957,5.81484 1.92254,0.71041 64.57119,2.25512 86.37821,2.12979 l 18,-0.10344 z m 31.78044,11.44839 c 17.42019,-4.22655 47.47859,-11.23374 64.21956,-14.97081 8.8,-1.96442 16.99309,-3.99823 18.20686,-4.51959 2.15361,-0.92504 2.20769,-1.36995 2.24073,-18.43572 0.0186,-9.61829 -0.29946,-17.69269 -0.70686,-17.9431 -0.4074,-0.25041 -13.79073,2.43726 -29.74073,5.9726 -15.95,3.53534 -36.425,7.98962 -45.5,9.8984 -9.075,1.90878 -17.5125,3.91249 -18.75,4.45268 -2.20613,0.96301 -2.25,1.31245 -2.25,17.92181 0,15.31348 0.39013,20.10323 1.63743,20.10323 0.2329,0 5.02225,-1.11578 10.64301,-2.4795 z M 407,601.00865 c 0,-0.54524 -1.60044,-3.08804 -3.55654,-5.65067 C 396.95514,586.85782 394,578.45623 394,568.5098 c 0,-2.41547 -0.35411,-4.61062 -0.78691,-4.8781 -0.4328,-0.26749 -14.2734,-0.809 -30.7569,-1.20336 -29.53314,-0.70657 -30.03231,-0.68524 -34.2448,1.46382 -2.35115,1.19946 -7.07304,2.74665 -10.4931,3.4382 l -6.21829,1.25735 -0.2785,14.37764 c -0.18023,9.30416 0.10172,14.75822 0.79899,15.45615 0.68592,0.68655 13.87029,1.47519 36.27851,2.17004 48.88604,1.51591 58.701,1.58565 58.701,0.41711 z m 65.76847,-10.55638 c 4.72376,-1.97371 7.92381,-4.97265 10.34574,-9.69555 1.76908,-3.4498 1.89866,-5.7627 1.65269,-29.5 L 484.5,525.5 l -14,-0.63151 c -24.71892,-1.115 -57.70531,-1.15431 -58.37579,-0.0696 -0.34332,0.55545 -0.57021,12.19041 -0.5042,25.85548 0.13764,28.49601 0.52617,30.26024 8.08014,36.69067 4.54194,3.86639 9.02653,4.56542 29.58197,4.61103 15.66877,0.0348 20.55235,-0.27793 23.48635,-1.50384 z M 438.44732,572.75 c 0.38811,-3.4375 0.9395,-7.42257 1.22531,-8.85571 0.38937,-1.95242 -0.26998,-3.50504 -2.6299,-6.19285 -5.13832,-5.85222 -5.84615,-11.06036 -2.42663,-17.8549 2.85935,-5.6815 12.84509,-8.73686 18.69964,-5.72158 9.63219,4.96089 10.95194,15.14546 3.09023,23.84744 -3.32353,3.67875 -3.34424,3.7623 -2.3851,9.61929 0.53215,3.24957 0.97015,7.14581 0.97334,8.65831 L 455,579 h -8.62917 -8.62916 z M 557,557.48013 c 0,-0.28593 -1.07982,-2.23042 -2.3996,-4.32109 -3.16198,-5.0089 -5.64193,-12.41932 -6.32574,-18.90211 -0.30417,-2.88369 -1.06043,-5.66417 -1.68057,-6.17885 -0.85216,-0.70722 -34.47814,-1.62264 -42.34409,-1.15275 -0.94091,0.0562 -1.25,3.7702 -1.25,15.01988 v 14.94521 l 4.75,0.37454 c 7.64709,0.60298 49.25,0.78474 49.25,0.21517 z M 592.8,555.8 c 1.8186,-1.8186 1.65298,-26.17917 -0.18837,-27.70736 -0.93508,-0.77604 -5.75087,-1.06089 -14.75,-0.87244 L 564.5,527.5 l 0.3176,4.91664 c 0.59441,9.2019 7.48366,18.84382 15.6824,21.94847 7.26878,2.75249 10.59443,3.14046 12.3,1.43489 z m 53.87885,-6.78141 C 664.18048,545.17881 685.25,540.55168 693.5,538.73607 l 15,-3.30111 0.27685,-14.73856 c 0.21742,-11.57425 -0.0101,-14.84868 -1.0598,-15.25148 -0.73515,-0.28211 -12.78474,2.17472 -26.77685,5.45961 -13.99211,3.28489 -34.8902,8.07274 -46.4402,10.63966 -11.55,2.56692 -21.33253,5.18208 -21.73897,5.81147 -0.40643,0.62939 -0.69755,7.33184 -0.64695,14.89434 0.0717,10.70633 0.38549,13.75 1.41782,13.75 0.72919,0 15.64531,-3.14163 33.14695,-6.98141 z M 393.5,539.5 v -15 l -19.42725,-0.27221 c -21.12043,-0.29594 -21.02929,-0.31915 -21.05744,5.36328 -0.0247,4.9849 -2.6285,12.25281 -6.45368,18.01396 -1.9589,2.95031 -3.56163,5.58139 -3.56163,5.84683 0,0.61138 18.29277,1.16134 36.5,1.09735 l 14,-0.0492 v -15 z m -72.71788,8.95117 c 4.21094,-1.75422 10.69576,-7.64296 12.77319,-11.59907 2.24435,-4.274 3.66021,-11.88748 2.47603,-13.31433 -1.07395,-1.29404 -21.9798,-2.87851 -24.61869,-1.86588 -1.11834,0.42915 -1.41265,3.29766 -1.41265,13.76843 0,7.27449 0.3,13.52635 0.66667,13.89301 1.16525,1.16526 6.26919,0.72015 10.11545,-0.88216 z m 251.96841,-40.6017 c 0.86736,-0.86736 0.78178,-2.03304 -0.34773,-4.73635 -4.36757,-10.45306 -18.01289,-16.44209 -29.88691,-13.11757 -9.47353,2.65243 -20.82454,16.73183 -14.76589,18.31512 4.10876,1.07373 43.87313,0.6662 45.00053,-0.4612 z M 593,507.44282 c 0,-2.55592 -2.18443,-10.43877 -3.03908,-10.96697 -0.4362,-0.26959 -1.95585,-0.0481 -3.377,0.49225 -2.83179,1.07664 -3.11179,2.59097 -1.53134,8.2819 0.94652,3.40826 1.3561,3.75 4.49442,3.75 2.45902,0 3.453,-0.44825 3.453,-1.55718 z m -86.16376,-0.7455 c 2.54215,-3.0631 -6.11068,-13.27853 -14.19213,-16.75507 -10.99785,-4.73115 -25.65075,0.60445 -31.30178,11.39801 -2.82422,5.39429 -2.20245,5.58908 18.86795,5.91091 10.60934,0.16205 20.69712,0.39683 22.41728,0.52173 1.72015,0.12491 3.61406,-0.35911 4.20868,-1.07558 z m 121.48322,-3.59642 c 9.8007,-2.18421 18.51133,-4.54551 19.35697,-5.24732 3.72307,-3.08988 -1.09222,-15.96905 -7.78254,-20.81549 -5.57426,-4.03797 -10.23742,-5.38565 -16.42529,-4.747 -14.67202,1.51428 -24.26512,15.09947 -20.42534,28.92517 1.24396,4.47903 3.57762,7.03018 5.81211,6.35378 0.90455,-0.27381 9.66338,-2.28492 19.46409,-4.46914 z m -231.90125,2.29211 c 3.31402,-1.27171 0.91353,-8.90742 -4.50316,-14.32412 -4.68179,-4.68178 -10.33859,-7.02077 -17.04293,-7.04693 -9.38627,-0.0366 -17.81565,5.0267 -21.98983,13.20878 -3.71521,7.2824 -3.90978,7.20306 19.13022,7.80062 11.26812,0.29225 21.01319,0.62975 21.6557,0.75 0.64252,0.12025 1.88002,-0.0545 2.75,-0.38835 z m 47.66621,-2.11504 c 1.87902,-4.94221 1.39079,-13.66486 -1.04669,-18.70002 C 440.84554,480.04948 435.57436,475 433.03927,475 c -0.69958,0 -3.83539,2.37328 -6.96847,5.27397 -4.07271,3.7706 -7.38891,5.82452 -11.63366,7.20539 -3.26543,1.06228 -6.2957,2.22005 -6.73393,2.57282 -0.86821,0.69889 2.06016,12.6716 3.59489,14.69782 0.68541,0.90491 5.19887,1.25 16.3491,1.25 h 15.4023 z M 524.53341,488.25 c 4.693,-4.5471 8.43519,-7.23953 11.46659,-8.25 3.39368,-1.13123 4.5809,-2.07104 4.82908,-3.82273 0.73714,-5.20288 -0.60708,-5.54266 -5.36365,-1.35576 -5.85497,5.15375 -12.469,8.22015 -19.237,8.91867 -3.13776,0.32385 -5.61993,1.11649 -5.9165,1.88934 -0.49649,1.29382 5.15387,9.37048 6.55551,9.37048 0.38466,0 3.83435,-3.0375 7.66597,-6.75 z m 149.30294,4.61369 c 5.53222,-1.27406 9.55878,-2.72982 9.88228,-3.57283 0.71128,-1.85357 -5.12552,-7.90293 -10.09623,-10.46391 -4.44729,-2.2913 -13.42065,-3.40315 -15.59304,-1.93207 -1.20933,0.81893 -1.26449,1.58305 -0.31041,4.3005 0.63812,1.81754 1.44747,5.10462 1.79855,7.30462 1.23182,7.71906 0.59367,7.52458 14.31885,4.36369 z m -212.01026,-8.54461 c 5.00481,-3.81736 13.95461,-7.26759 18.92391,-7.29534 5.12867,-0.0286 5.4893,-1.53238 1.59268,-6.64111 -1.46152,-1.91615 -3.41765,-5.82363 -4.34696,-8.68327 -1.93631,-5.95841 -3.52833,-6.65011 -10.69056,-4.64481 -5.70753,1.59801 -11.59136,5.9097 -14.91204,10.9276 l -2.64545,3.99753 3.37617,7.50907 c 1.85689,4.12999 3.78368,7.50956 4.28177,7.51016 0.49808,6e-4 2.4873,-1.20532 4.42048,-2.67983 z m 123.43152,1.10881 c 5.47993,-1.8672 8.71829,-4.8945 12.72273,-11.89353 2.68833,-4.69871 2.85973,-5.53053 1.87569,-9.10281 -1.7183,-6.23783 -4.66499,-9.44466 -11.76426,-12.80284 -5.56896,-2.63429 -7.76817,-3.11894 -14.17336,-3.12341 -6.71848,-0.005 -8.05237,0.32064 -11.71689,2.85776 C 556.86695,455.05642 553,462.57851 553,469.26209 c 0,5.78078 1.35291,8.73791 3.99767,8.73791 3.15278,0 12.27854,3.80083 15.50233,6.45663 3.52035,2.90012 6.44358,3.12267 12.75761,0.97126 z m -174.76376,-8.54355 c 8.13642,-2.58268 14.63636,-10.67717 16.00077,-19.92606 0.48864,-3.31233 0.13281,-6.13292 -1.31454,-10.42012 -1.52921,-4.52967 -1.72841,-6.28854 -0.86821,-7.66594 0.90186,-1.4441 0.65746,-2.27596 -1.27208,-4.32987 -2.7895,-2.96929 -3.74895,-3.11553 -6.15488,-0.93819 -1.62843,1.4737 -2.14365,1.46244 -6.33561,-0.13848 -8.26141,-3.15506 -19.2137,-0.21096 -25.07505,6.74047 -4.43578,5.26074 -5.77215,9.49383 -5.20961,16.50197 1.29479,16.13032 14.72844,25.09649 30.22921,20.17622 z m 111.47738,-6.36976 c 13.98553,-7.087 17.05669,-24.82049 6.47619,-37.3947 L 525.82221,430 H 511.36336 496.9045 l -2.59149,2.75 c -3.31441,3.51714 -6.16562,9.87452 -6.91092,15.40938 -0.73206,5.43649 2.39397,14.31299 6.38827,18.13977 7.40557,7.09498 19.0585,8.83808 28.18087,4.21543 z m 188.88455,-14.89966 c 0.60241,-6.53679 0.88909,-12.21872 0.63706,-12.62651 -0.25203,-0.40779 -8.22852,-4.91957 -17.72554,-10.02618 C 684.27029,427.85563 668.85,419.53449 659.5,414.47083 621.84471,394.0779 612.22775,389 611.26118,389 c -1.21186,0 -1.70689,2.30759 -3.38195,15.76505 -1.09849,8.82524 -1.07443,10.46496 0.17153,11.69029 0.79708,0.78388 18.09924,9.97112 38.44924,20.41607 20.35,10.44496 42.625,21.87867 49.5,25.40826 6.875,3.52959 12.78361,6.14809 13.13025,5.81888 0.34663,-0.3292 1.12312,-5.94683 1.72553,-12.48363 z m -261.71332,-8.28844 c 1.59249,-7.05456 4.0397,-15.17812 5.43823,-18.05235 3.99076,-8.20168 7.43575,-10.03463 28.12407,-14.96381 L 494.5,411.5 h 46 46 l 1.70919,-10.4662 c 1.20879,-7.40197 1.39103,-10.66285 0.62245,-11.13785 -0.59771,-0.36941 -22.74185,-0.60962 -49.20919,-0.5338 L 491.5,389.5 l -0.2912,8.2972 c -0.18713,5.33164 -0.72325,8.46049 -1.5,8.75406 -0.66484,0.25128 -4.3588,-0.33246 -8.2088,-1.29719 l -7,-1.75407 -0.27051,-9 -0.2705,-9 4.53513,-5.75 c 2.49432,-3.1625 5.09104,-5.74443 5.7705,-5.73762 0.67946,0.007 2.25202,1.58181 3.49457,3.5 l 2.2592,3.48762 40.4908,0.22826 c 22.26995,0.12554 45.08825,0.23804 50.70735,0.25 l 10.21654,0.0217 1.30616,-5 c 0.7184,-2.75 2.72206,-9.3864 4.45259,-14.74755 1.73052,-5.36115 2.95781,-9.92597 2.72729,-10.14404 -0.23052,-0.21803 -31.69412,-0.6703 -69.91912,-1.005 -38.225,-0.33469 -97.625,-0.85442 -132,-1.15494 -34.375,-0.30052 -63.00622,-0.18686 -63.62494,0.25258 -3.81319,2.70833 -14.12254,24.90871 -12.96628,27.92188 0.43781,1.14089 8.15099,1.37711 44.96672,1.37711 h 44.43826 l 4.24507,5.07027 c 3.49352,4.17262 4.66278,4.96543 6.60443,4.47811 2.32243,-0.58289 2.35005,-0.50183 1.76454,5.17973 -0.32714,3.17454 -0.74337,6.26992 -0.92494,6.87862 C 422.19097,401.65229 410.82223,405 407.58342,405 c -1.20402,0 -1.56342,-1.75249 -1.79449,-8.75 L 405.5,387.5 362.06076,387.23924 c -23.89158,-0.14342 -43.79175,0.0917 -44.2226,0.5226 -1.14764,1.14764 -4.20895,20.20052 -3.37922,21.03147 0.38811,0.38868 18.10612,0.95129 39.37335,1.25025 l 38.66771,0.54356 13.87808,3.66208 c 24.71216,6.52091 27.20867,8.88578 32.62387,30.90367 5.22706,21.25293 5.80558,21.37694 10.14051,2.17361 z m -28.34637,-67.11686 c -2.58714,-2.04029 -4.72464,-4.46205 -4.75,-5.3817 -0.16376,-5.94052 22.5725,-15.59139 24.55573,-10.42319 0.29647,0.77261 -0.28015,4.70635 -1.28139,8.74165 -1.81233,7.30428 -1.83734,7.33963 -5.62128,7.94611 -2.09046,0.33506 -4.31796,1.12632 -4.95,1.75836 -1.74945,1.74945 -2.84827,1.38453 -7.95306,-2.64123 z M 458.52007,380 l -7.97993,-0.5 -1.72128,-7.42443 c -0.94671,-4.08343 -1.45751,-7.85123 -1.13511,-8.37289 0.33876,-0.54812 5.10605,-0.76223 11.29435,-0.50727 8.74935,0.36049 11.60577,0.88602 15.61503,2.87289 2.69878,1.33744 5.0334,3.12072 5.18805,3.96285 0.16712,0.91008 -2.06384,3.16979 -5.5,5.57088 -7.49369,5.23638 -6.55603,4.97473 -15.76111,4.39797 z M 484,447.46839 C 484,445.43227 473.09206,431 471.55315,431 c -0.66249,0 -2.24901,1.11181 -3.52561,2.47068 -2.8728,3.05796 -2.42559,3.7035 7.32469,10.57294 7.5998,5.35434 8.64777,5.76937 8.64777,3.42477 z M 712.37772,423.75 c 0.3016,-3.9875 0.78561,-11.4199 1.07559,-16.51644 l 0.52721,-9.26643 -3.74026,-2.55058 C 708.18312,394.01374 696.375,387.13505 684,380.13058 671.625,373.1261 653.67664,362.94482 644.11475,357.50549 l -17.38524,-9.88967 -1.96976,2.43255 c -1.08337,1.3379 -2.99504,4.46184 -4.24817,6.94209 -2.8489,5.63867 -7.70696,20.88439 -7.01275,22.00764 0.56479,0.91386 3.13422,2.33573 43.00117,23.79608 37.4787,20.17476 52.80313,28.14718 54.16468,28.17878 0.73265,0.017 1.36809,-2.66233 1.71304,-7.22296 z m -1.14782,-39.31323 c 1.78428,-1.78428 -5.76657,-24.0373 -12.02435,-35.43677 -7.14462,-13.01501 -20.7345,-23.20939 -32.8532,-24.64468 -5.91001,-0.69995 -16.0164,1.66153 -21.8277,5.10031 -5.50383,3.25685 -11.79939,9.22015 -11.30372,10.70716 0.22408,0.67224 7.61327,5.29811 16.42043,10.27973 17.82366,10.08164 27.17822,15.44047 46.63938,26.7177 14.01207,8.11964 14.07529,8.15041 14.94916,7.27655 z M 608.1238,338.25 c 1.77094,-2.6125 4.94376,-6.83889 7.05072,-9.39198 2.71697,-3.29226 3.44214,-4.79114 2.49402,-5.15497 -0.73526,-0.28215 -56.42397,-0.1612 -123.75269,0.26876 L 371.5,324.75357 l -6.74155,2.49603 c -10.52091,3.89533 -22.2637,11.57848 -20.45727,13.38491 0.34224,0.34224 41.47698,0.82381 91.41053,1.07015 49.93356,0.24635 91.23829,0.60305 91.78829,0.79267 0.55,0.18963 18.19088,0.3803 39.20196,0.42372 l 38.20196,0.079 3.21988,-4.75 z"
         id="path459" />
    </g>
  </g>
</svg>
